<svg xmlns="http://www.w3.org/2000/svg" viewBox="0 0 429.73 237.26"><title>submission-arrow</title><g id="Layer_2" data-name="Layer 2"><g id="Layer_1-2" data-name="Layer 1"><g id="Layer_2-2" data-name="Layer 2"><g id="Layer_1-2-2" data-name="Layer 1-2"><path d="M425.08,106.81,337.55,5.36a16.13,16.13,0,0,0-22.78-1.24l-.59.56c-6.41,6.05-6.59,17.78-.65,24.31L375,101.43H16.53c-9.12,0-16.53,7.7-16.53,17.2s7.4,17.2,16.53,17.2H375l-61.44,72.42c-5.94,6.53-5.51,18,.65,24.31a16.08,16.08,0,0,0,22.74,0q.32-.32.63-.67l87.53-101.43c3.88-4,4.61-7.78,4.65-11.82A20.46,20.46,0,0,0,425.08,106.81Z"/></g></g></g></g></svg>