<svg xmlns="http://www.w3.org/2000/svg" viewBox="0 0 425.96 425.96"><title>svg-instagram</title><g id="Layer_2" data-name="Layer 2"><g id="Capa_1" data-name="Capa 1"><path d="M213,23A190,190,0,0,1,347.31,347.31,190,190,0,1,1,78.64,78.64,188.73,188.73,0,0,1,213,23m0-23C95.35,0,0,95.35,0,213S95.35,426,213,426,426,330.6,426,213,330.6,0,213,0Z"/><path d="M295.35,178.82C295,170,293.54,164,291.48,158.7a42.26,42.26,0,0,0-24.22-24.22C262,132.42,256,131,247.14,130.61s-11.68-.47-34.16-.47-25.33.08-34.16.47-14.83,1.81-20.12,3.87a42.26,42.26,0,0,0-24.22,24.22C132.42,164,131,170,130.61,178.82s-.47,11.68-.47,34.16.08,25.33.47,34.16,1.81,14.83,3.87,20.12a42.26,42.26,0,0,0,24.22,24.22c5.29,2.05,11.28,3.47,20.12,3.87s11.68.47,34.16.47,25.33-.08,34.16-.47,14.83-1.81,20.12-3.87a42.26,42.26,0,0,0,24.22-24.22c2.05-5.29,3.47-11.28,3.87-20.12s.47-11.68.47-34.16S295.74,187.65,295.35,178.82Zm-14.91,67.62c-.39,8-1.74,12.47-2.84,15.39a25.71,25.71,0,0,1-6.23,9.55,26.72,26.72,0,0,1-9.55,6.23c-2.92,1.1-7.34,2.45-15.39,2.84-8.76.39-11.36.47-33.45.47s-24.77-.08-33.45-.47c-8-.39-12.47-1.74-15.39-2.84a25.71,25.71,0,0,1-9.55-6.23,26.72,26.72,0,0,1-6.23-9.55c-1.1-2.92-2.45-7.34-2.84-15.39-.39-8.76-.47-11.36-.47-33.45s.08-24.77.47-33.45c.39-8,1.74-12.47,2.84-15.39a25.71,25.71,0,0,1,6.23-9.55,26.72,26.72,0,0,1,9.55-6.23c2.92-1.1,7.34-2.45,15.39-2.84,8.76-.39,11.36-.47,33.45-.47s24.77.08,33.45.47c8,.39,12.47,1.74,15.39,2.84a27.74,27.74,0,0,1,15.78,15.78c1.1,2.92,2.45,7.34,2.84,15.39.39,8.76.47,11.36.47,33.45S280.83,237.75,280.44,246.43Z"/><path d="M213,170.45A42.53,42.53,0,1,0,255.51,213,42.49,42.49,0,0,0,213,170.45Zm0,70.14A27.61,27.61,0,1,1,240.59,213,27.65,27.65,0,0,1,213,240.59Z"/><circle cx="257.16" cy="168.8" r="9.94"/></g></g></svg>