<svg xmlns="http://www.w3.org/2000/svg" viewBox="0 0 425.96 425.96"><title>svg-twitter</title><g id="Layer_2" data-name="Layer 2"><g id="Capa_1" data-name="Capa 1"><path d="M213,23A190,190,0,0,1,347.31,347.31,190,190,0,1,1,78.64,78.64,188.73,188.73,0,0,1,213,23m0-23C95.35,0,0,95.35,0,213S95.35,426,213,426,426,330.6,426,213,330.6,0,213,0Z"/><path d="M314.94,149.77a81.74,81.74,0,0,1-24,6.54,42.15,42.15,0,0,0,18.4-23.14,83.39,83.39,0,0,1-26.56,10.15A41.87,41.87,0,0,0,210.42,172a45.6,45.6,0,0,0,1,9.58,118.83,118.83,0,0,1-86.21-43.82,41.85,41.85,0,0,0,12.9,55.86,41.71,41.71,0,0,1-19-5.22v.57A41.92,41.92,0,0,0,152.75,230a42.16,42.16,0,0,1-11,1.42,43.42,43.42,0,0,1-7.87-.76,41.79,41.79,0,0,0,39.08,29,84.12,84.12,0,0,1-52,17.93,85.19,85.19,0,0,1-10-.57,118.44,118.44,0,0,0,64.11,18.78c76.92,0,119-63.73,119-119,0-1.8,0-3.6-.09-5.41A85.33,85.33,0,0,0,314.94,149.77Z"/></g></g></svg>