<svg xmlns="http://www.w3.org/2000/svg" viewBox="0 0 430.11 430.12"><title>svg-clock</title><g id="Layer_2" data-name="Layer 2"><g id="Layer_1-2" data-name="Layer 1"><g id="Layer_2-2" data-name="Layer 2"><g id="Capa_1" data-name="Capa 1"><path d="M215.06,75.9a12.66,12.66,0,0,0-12.65,12.65V215a12.78,12.78,0,0,0,3.56,9.09l80.66,80.26a12.58,12.58,0,1,0,18.63-16.91q-.41-.45-.86-.86l-76.7-77.08v-121A12.66,12.66,0,0,0,215.06,75.9Zm0-50.6c104.8,0,189.76,85,189.76,189.76s-85,189.76-189.76,189.76S25.3,319.86,25.3,215.06h0C25.18,110.38,109.94,25.42,214.62,25.3h.44Zm0-25.3C96.47,0,0,96.46,0,215.06S96.46,430.12,215.06,430.12s215-96.49,215-215.06S333.63,0,215.06,0Z"/></g></g></g></g></svg>