<svg xmlns="http://www.w3.org/2000/svg" viewBox="0 0 425.96 425.96"><title>svg-facebook</title><g id="Layer_2" data-name="Layer 2"><g id="Capa_1" data-name="Capa 1"><path id="Facebook" d="M191,162.2V185H174.3v27.91H191v82.93h34.35V212.93h23s2.16-13.38,3.21-28H225.5V165.84c0-2.85,3.74-6.69,7.45-6.69h18.71V130.09H226.21C190.17,130.09,191,158,191,162.2Z"/><path d="M213,23A190,190,0,0,1,347.31,347.31,190,190,0,1,1,78.64,78.64,188.73,188.73,0,0,1,213,23m0-23C95.35,0,0,95.35,0,213S95.35,426,213,426,426,330.6,426,213,330.6,0,213,0Z"/></g></g></svg>